<?xml version="1.0" encoding="utf-8"?>
<!-- Generated by IcoMoon.io -->
<!DOCTYPE svg PUBLIC "-//W3C//DTD SVG 1.1//EN" "http://www.w3.org/Graphics/SVG/1.1/DTD/svg11.dtd">
<svg version="1.1" xmlns="http://www.w3.org/2000/svg" xmlns:xlink="http://www.w3.org/1999/xlink" width="512" height="512" viewBox="0 0 512 512">
<g>
</g>
	<path d="M250.911 257.945c0 64.492-52.306 116.777-116.818 116.777s-116.808-52.286-116.808-116.777c0-64.543 52.296-116.818 116.808-116.818 64.512 0 116.818 52.286 116.818 116.818z" fill="#000000" />
	<path d="M475.341 255.99c0 54.805-44.595 99.379-99.399 99.379s-99.379-44.585-99.379-99.379c0-54.794 44.585-99.369 99.379-99.369s99.399 44.575 99.399 99.369zM375.941 137.237c-65.495 0-118.774 53.268-118.774 118.754 0 65.495 53.279 118.774 118.774 118.774 65.485 0 118.784-53.269 118.784-118.774 0-65.485-53.31-118.754-118.784-118.754z" fill="#000000" />
</svg>
